<svg xmlns="http://www.w3.org/2000/svg" id="canvas" viewBox="874.941 333.867 205.013 209.593"><path d="M 948.47,356.83 C 946.75 358.01, 946.01 359.37, 945.67 362.00 C 945.33 364.63, 946.24 366.15, 946.79 369.99 C 947.34 373.83, 947.89 376.34, 948.42 381.21 C 948.94 386.08, 949.09 388.76, 949.41 394.33 C 949.72 399.91, 949.81 402.96, 949.99 409.11 C 950.16 415.25, 950.17 418.51, 950.29 425.08 C 950.41 431.64, 950.42 435.15, 950.58 441.92 C 950.74 448.69, 950.85 452.21, 951.09 458.92 C 951.33 465.63, 951.48 469.06, 951.79 475.48 C 952.10 481.91, 952.29 485.10, 952.63 491.03 C 952.97 496.96, 953.16 499.86, 953.50 505.14 C 953.83 510.43, 954.07 512.85, 954.31 517.45 C 954.55 522.05, 954.39 524.43, 954.70 528.15 C 955.01 531.86, 954.94 533.64, 955.87 536.02 C 956.81 538.40, 957.85 539.35, 959.38 540.04 C 960.91 540.74, 962.23 540.57, 963.52 539.49 C 964.82 538.41, 965.60 537.16, 965.84 534.63 C 966.09 532.09, 965.42 530.44, 964.76 526.81 C 964.10 523.19, 963.35 520.97, 962.55 516.50 C 961.74 512.03, 961.38 509.65, 960.72 504.46 C 960.07 499.27, 959.79 496.40, 959.26 490.54 C 958.72 484.67, 958.46 481.50, 958.05 475.13 C 957.64 468.76, 957.46 465.36, 957.20 458.69 C 956.94 452.02, 956.85 448.53, 956.75 441.80 C 956.66 435.07, 956.70 431.58, 956.73 425.03 C 956.76 418.49, 956.81 415.22, 956.91 409.07 C 957.02 402.91, 957.07 399.88, 957.26 394.25 C 957.46 388.63, 957.67 385.92, 957.91 380.93 C 958.14 375.94, 958.33 373.34, 958.43 369.32 C 958.52 365.29, 959.20 363.47, 958.38 360.82 C 957.55 358.17, 956.27 356.88, 954.29 356.08 C 952.31 355.28, 950.20 355.65, 948.47 356.83" style="stroke: black; fill: black;"/><path d="M 879.98,353.68 C 881.60 354.95, 883.15 354.97, 886.26 354.51 C 889.37 354.05, 891.12 352.67, 895.51 351.36 C 899.91 350.06, 902.50 349.23, 908.23 347.98 C 913.96 346.74, 917.22 346.07, 924.15 345.12 C 931.08 344.16, 934.97 343.81, 942.87 343.21 C 950.78 342.60, 955.21 342.38, 963.67 342.09 C 972.13 341.81, 976.64 341.73, 985.16 341.78 C 993.68 341.82, 998.11 341.94, 1006.27 342.33 C 1014.44 342.71, 1018.57 343.00, 1025.99 343.71 C 1033.41 344.41, 1037.04 344.84, 1043.39 345.86 C 1049.73 346.88, 1053.00 347.58, 1057.72 348.81 C 1062.44 350.03, 1064.13 351.20, 1067.01 351.99 C 1069.88 352.77, 1070.61 352.85, 1072.09 352.72 C 1073.57 352.59, 1073.85 351.85, 1074.40 351.33 C 1074.96 350.82, 1074.50 350.33, 1074.86 350.15 C 1075.22 349.97, 1075.81 350.82, 1076.21 350.42 C 1076.62 350.02, 1077.15 349.32, 1076.88 348.16 C 1076.62 347.01, 1076.41 345.82, 1074.88 344.65 C 1073.35 343.48, 1072.43 342.93, 1069.25 342.31 C 1066.07 341.69, 1064.01 342.02, 1058.99 341.54 C 1053.97 341.06, 1050.66 340.53, 1044.14 339.91 C 1037.63 339.29, 1033.94 338.97, 1026.41 338.46 C 1018.88 337.96, 1014.73 337.70, 1006.49 337.39 C 998.24 337.08, 993.79 336.97, 985.20 336.90 C 976.61 336.83, 972.07 336.87, 963.53 337.04 C 955.00 337.21, 950.55 337.36, 942.54 337.73 C 934.53 338.09, 930.60 338.34, 923.50 338.87 C 916.39 339.39, 913.02 339.74, 907.02 340.34 C 901.02 340.95, 898.25 341.24, 893.49 341.90 C 888.73 342.55, 886.30 342.35, 883.23 343.60 C 880.16 344.85, 878.81 346.13, 878.16 348.15 C 877.51 350.17, 878.36 352.41, 879.98 353.68" style="stroke: black; fill: black;"/></svg>