<svg xmlns="http://www.w3.org/2000/svg" id="canvas" viewBox="305.059 354.753 1064.413 262.179"><path d="M 360.80,378.16 C 359.23 378.85, 358.34 379.76, 357.38 382.31 C 356.42 384.85, 356.85 386.68, 355.98 390.89 C 355.11 395.11, 354.57 397.90, 353.02 403.37 C 351.47 408.84, 350.44 412.02, 348.24 418.24 C 346.05 424.46, 344.64 427.89, 342.05 434.46 C 339.45 441.02, 337.95 444.55, 335.27 451.06 C 332.58 457.57, 331.13 460.94, 328.62 467.00 C 326.10 473.06, 324.87 476.08, 322.68 481.36 C 320.50 486.64, 319.50 489.17, 317.70 493.41 C 315.89 497.65, 314.77 499.42, 313.66 502.54 C 312.54 505.66, 312.28 506.94, 312.14 509.03 C 312.01 511.12, 312.23 512.01, 312.96 512.99 C 313.69 513.96, 314.64 514.26, 315.80 513.90 C 316.96 513.55, 317.64 512.96, 318.77 511.21 C 319.89 509.46, 320.45 508.29, 321.44 505.16 C 322.44 502.03, 322.47 499.93, 323.72 495.55 C 324.98 491.18, 325.85 488.64, 327.74 483.30 C 329.63 477.95, 330.78 474.93, 333.17 468.84 C 335.55 462.76, 336.97 459.38, 339.66 452.87 C 342.34 446.36, 343.85 442.84, 346.58 436.30 C 349.32 429.77, 350.79 426.35, 353.33 420.19 C 355.88 414.03, 357.16 410.90, 359.30 405.51 C 361.44 400.11, 362.48 397.42, 364.03 393.21 C 365.59 389.00, 366.83 387.32, 367.07 384.45 C 367.30 381.58, 366.46 380.13, 365.21 378.87 C 363.95 377.61, 362.36 377.48, 360.80 378.16" style="stroke: black; fill: black;"/><path d="M 309.12,373.65 C 310.03 374.82, 310.68 375.29, 312.71 375.46 C 314.73 375.63, 315.84 375.38, 319.25 374.51 C 322.66 373.65, 324.76 372.40, 329.77 371.14 C 334.78 369.88, 337.97 369.32, 344.28 368.21 C 350.60 367.10, 354.30 366.47, 361.36 365.58 C 368.42 364.68, 372.32 364.29, 379.57 363.73 C 386.82 363.17, 390.70 362.94, 397.60 362.76 C 404.49 362.58, 407.99 362.56, 414.06 362.82 C 420.13 363.08, 423.05 363.32, 427.95 364.06 C 432.85 364.80, 435.13 365.61, 438.58 366.52 C 442.03 367.43, 443.03 368.19, 445.20 368.62 C 447.37 369.04, 448.29 369.18, 449.43 368.65 C 450.56 368.11, 451.20 367.29, 450.90 365.96 C 450.59 364.64, 450.03 363.36, 447.90 362.03 C 445.76 360.69, 444.10 360.06, 440.23 359.30 C 436.37 358.53, 433.77 358.52, 428.56 358.21 C 423.35 357.90, 420.41 357.79, 414.18 357.76 C 407.96 357.73, 404.44 357.79, 397.44 358.06 C 390.45 358.32, 386.55 358.57, 379.23 359.08 C 371.90 359.59, 367.96 359.95, 360.81 360.63 C 353.67 361.30, 349.95 361.82, 343.50 362.45 C 337.05 363.07, 333.82 363.34, 328.57 363.75 C 323.32 364.16, 320.83 363.97, 317.25 364.50 C 313.68 365.02, 312.50 365.36, 310.69 366.39 C 308.87 367.42, 308.48 368.19, 308.17 369.64 C 307.86 371.09, 308.21 372.49, 309.12 373.65" style="stroke: black; fill: black;"/><path d="M 465.82,454.83 C 465.33 452.92, 463.98 451.20, 461.28 449.88 C 458.59 448.55, 456.41 448.16, 452.34 448.22 C 448.28 448.28, 445.61 448.69, 440.95 450.18 C 436.30 451.67, 433.95 453.02, 429.05 455.66 C 424.16 458.31, 421.44 460.05, 416.47 463.40 C 411.50 466.75, 408.71 468.74, 404.20 472.41 C 399.69 476.07, 397.40 478.10, 393.92 481.72 C 390.45 485.35, 388.68 487.07, 386.83 490.53 C 384.99 493.98, 384.40 495.87, 384.69 499.01 C 384.99 502.15, 385.99 504.06, 388.31 506.24 C 390.63 508.41, 392.67 509.64, 396.29 509.88 C 399.91 510.12, 402.07 509.02, 406.41 507.45 C 410.74 505.88, 413.10 504.65, 417.97 502.02 C 422.84 499.39, 425.58 497.75, 430.74 494.31 C 435.91 490.87, 438.75 488.81, 443.78 484.81 C 448.81 480.81, 451.44 478.39, 455.89 474.30 C 460.34 470.21, 462.51 467.93, 466.03 464.37 C 469.55 460.81, 471.85 459.43, 473.51 456.50 C 475.17 453.56, 475.28 451.47, 474.35 449.68 C 473.42 447.89, 471.14 446.75, 468.86 447.53 C 466.59 448.32, 465.24 450.14, 462.97 453.60 C 460.70 457.07, 459.73 460.00, 457.50 464.86 C 455.27 469.73, 453.97 472.86, 451.83 477.93 C 449.69 483.00, 448.43 485.68, 446.80 490.20 C 445.17 494.71, 444.20 496.75, 443.68 500.51 C 443.15 504.28, 443.14 506.07, 444.17 509.03 C 445.21 511.99, 446.43 513.47, 448.85 515.30 C 451.28 517.14, 453.42 517.91, 456.31 518.22 C 459.21 518.53, 461.23 518.11, 463.33 516.85 C 465.43 515.58, 466.53 513.81, 466.83 511.91 C 467.13 510.00, 466.21 508.51, 464.85 507.32 C 463.49 506.14, 461.79 506.07, 460.01 505.99 C 458.24 505.92, 457.38 506.50, 455.96 506.94 C 454.54 507.39, 453.75 508.24, 452.92 508.21 C 452.08 508.18, 452.02 508.12, 451.80 506.79 C 451.57 505.46, 451.44 504.45, 451.79 501.58 C 452.14 498.72, 452.25 496.62, 453.54 492.46 C 454.82 488.30, 455.96 485.54, 458.21 480.78 C 460.47 476.02, 462.20 473.10, 464.81 468.67 C 467.43 464.24, 469.40 462.01, 471.28 458.64 C 473.15 455.27, 474.20 453.82, 474.18 451.81 C 474.15 449.80, 472.66 448.64, 471.14 448.60 C 469.62 448.57, 468.57 449.36, 466.58 451.65 C 464.58 453.95, 464.10 456.37, 461.19 460.08 C 458.27 463.79, 456.17 466.12, 452.01 470.20 C 447.84 474.28, 445.25 476.66, 440.36 480.48 C 435.47 484.30, 432.65 486.25, 427.57 489.31 C 422.49 492.37, 419.68 493.80, 414.97 495.78 C 410.26 497.76, 407.73 498.44, 404.02 499.21 C 400.30 499.97, 398.65 499.40, 396.39 499.59 C 394.14 499.77, 393.62 500.27, 392.76 500.13 C 391.90 499.99, 391.89 500.04, 392.11 498.87 C 392.32 497.69, 392.47 496.79, 393.82 494.25 C 395.17 491.71, 396.02 489.59, 398.87 486.16 C 401.72 482.73, 403.89 480.63, 408.08 477.10 C 412.28 473.56, 415.04 471.59, 419.83 468.49 C 424.62 465.40, 427.42 463.77, 432.05 461.64 C 436.67 459.50, 438.98 458.60, 442.96 457.84 C 446.93 457.07, 448.89 457.42, 451.91 457.80 C 454.94 458.18, 455.71 459.41, 458.08 459.73 C 460.44 460.06, 462.19 460.40, 463.74 459.42 C 465.29 458.43, 466.31 456.74, 465.82 454.83" style="stroke: black; fill: black;"/><path d="M 537.67,392.60 C 536.14 392.78, 535.07 392.98, 533.71 395.06 C 532.35 397.14, 532.29 398.89, 530.88 402.98 C 529.46 407.08, 528.76 409.97, 526.64 415.53 C 524.52 421.09, 523.10 424.50, 520.27 430.78 C 517.45 437.07, 515.65 440.60, 512.52 446.96 C 509.39 453.32, 507.63 456.69, 504.63 462.60 C 501.63 468.52, 500.09 471.50, 497.54 476.53 C 494.99 481.57, 493.65 483.91, 491.87 487.79 C 490.09 491.67, 488.73 493.22, 488.62 495.92 C 488.52 498.63, 489.52 500.07, 491.34 501.33 C 493.15 502.60, 495.26 503.23, 497.72 502.26 C 500.18 501.29, 501.09 499.58, 503.64 496.49 C 506.19 493.41, 507.20 490.89, 510.46 486.84 C 513.72 482.79, 515.81 480.31, 519.94 476.27 C 524.07 472.22, 526.66 470.00, 531.12 466.61 C 535.59 463.23, 538.11 461.56, 542.26 459.35 C 546.41 457.14, 548.73 456.48, 551.89 455.57 C 555.05 454.66, 556.40 454.85, 558.05 454.81 C 559.70 454.77, 559.84 454.56, 560.13 455.37 C 560.42 456.19, 559.77 456.73, 559.52 458.87 C 559.27 461.02, 559.56 462.68, 558.87 466.11 C 558.18 469.54, 557.49 471.98, 556.08 476.02 C 554.67 480.07, 553.57 482.43, 551.84 486.34 C 550.11 490.25, 548.77 492.20, 547.44 495.57 C 546.11 498.94, 545.38 500.59, 545.19 503.18 C 545.01 505.77, 545.57 507.33, 546.54 508.53 C 547.50 509.73, 548.72 509.80, 550.03 509.19 C 551.34 508.57, 551.93 507.50, 553.08 505.43 C 554.23 503.37, 554.51 502.04, 555.77 498.87 C 557.04 495.70, 557.75 493.55, 559.40 489.58 C 561.05 485.61, 562.29 483.28, 564.03 479.04 C 565.77 474.80, 566.92 472.48, 568.10 468.39 C 569.27 464.29, 570.32 462.10, 569.90 458.56 C 569.48 455.03, 568.22 453.07, 565.98 450.71 C 563.75 448.35, 562.03 447.23, 558.74 446.76 C 555.46 446.30, 553.48 446.99, 549.55 448.40 C 545.62 449.80, 543.49 451.10, 539.08 453.78 C 534.66 456.47, 532.17 458.26, 527.48 461.82 C 522.80 465.39, 520.17 467.65, 515.64 471.62 C 511.12 475.58, 508.73 477.96, 504.84 481.64 C 500.96 485.33, 498.81 487.19, 496.21 490.04 C 493.60 492.88, 492.44 494.00, 491.83 495.87 C 491.21 497.74, 492.26 498.99, 493.12 499.38 C 493.99 499.78, 495.11 499.64, 496.15 497.84 C 497.19 496.04, 497.04 494.17, 498.33 490.37 C 499.61 486.58, 500.42 483.98, 502.57 478.87 C 504.72 473.75, 506.22 470.75, 509.09 464.81 C 511.96 458.87, 513.71 455.50, 516.92 449.16 C 520.13 442.82, 521.98 439.30, 525.14 433.12 C 528.29 426.93, 529.95 423.58, 532.69 418.23 C 535.44 412.88, 536.91 410.26, 538.87 406.35 C 540.83 402.44, 541.98 401.13, 542.48 398.68 C 542.99 396.24, 542.37 395.35, 541.41 394.13 C 540.44 392.92, 539.21 392.41, 537.67 392.60" style="stroke: black; fill: black;"/><path d="M 661.33,450.05 C 661.40 448.42, 660.88 447.26, 659.19 445.76 C 657.50 444.25, 656.06 442.95, 652.88 442.52 C 649.69 442.09, 647.38 442.72, 643.28 443.62 C 639.17 444.51, 636.89 445.45, 632.35 447.01 C 627.82 448.57, 625.13 449.53, 620.59 451.43 C 616.04 453.33, 613.55 454.39, 609.61 456.51 C 605.67 458.64, 603.43 459.45, 600.88 462.05 C 598.32 464.65, 597.42 466.41, 596.84 469.51 C 596.26 472.60, 596.51 474.67, 597.97 477.53 C 599.44 480.39, 600.98 481.85, 604.15 483.80 C 607.33 485.75, 609.72 486.02, 613.84 487.28 C 617.96 488.54, 620.48 488.95, 624.74 490.10 C 629.00 491.25, 631.45 491.77, 635.15 493.02 C 638.86 494.27, 640.66 495.39, 643.27 496.35 C 645.88 497.31, 646.97 497.63, 648.21 497.84 C 649.45 498.04, 649.70 497.60, 649.47 497.39 C 649.23 497.17, 648.60 496.48, 647.01 496.77 C 645.43 497.05, 644.36 497.63, 641.54 498.81 C 638.71 499.99, 636.80 501.25, 632.90 502.66 C 628.99 504.07, 626.46 504.81, 622.01 505.85 C 617.57 506.90, 614.94 507.36, 610.67 507.87 C 606.39 508.37, 604.11 508.22, 600.62 508.38 C 597.14 508.54, 595.56 508.23, 593.23 508.68 C 590.91 509.14, 589.91 509.60, 589.00 510.64 C 588.08 511.68, 587.89 512.66, 588.67 513.87 C 589.46 515.08, 590.44 516.04, 592.93 516.68 C 595.41 517.31, 597.34 517.28, 601.09 517.05 C 604.85 516.82, 607.22 516.23, 611.72 515.52 C 616.22 514.82, 618.88 514.37, 623.59 513.53 C 628.30 512.69, 630.89 512.20, 635.29 511.32 C 639.68 510.44, 642.07 510.41, 645.56 509.13 C 649.05 507.85, 650.81 507.11, 652.74 504.92 C 654.68 502.73, 655.12 500.82, 655.22 498.19 C 655.31 495.55, 654.88 493.91, 653.23 491.74 C 651.57 489.56, 650.07 488.68, 646.94 487.31 C 643.82 485.94, 641.58 485.94, 637.61 484.88 C 633.63 483.82, 631.21 483.28, 627.08 482.00 C 622.95 480.72, 620.52 479.97, 616.95 478.50 C 613.39 477.04, 611.67 475.85, 609.25 474.68 C 606.82 473.51, 605.87 473.29, 604.83 472.63 C 603.78 471.98, 603.56 472.20, 604.01 471.40 C 604.45 470.61, 605.15 470.24, 607.06 468.65 C 608.98 467.05, 610.30 465.45, 613.58 463.43 C 616.87 461.40, 619.27 460.22, 623.49 458.52 C 627.71 456.83, 630.48 455.95, 634.68 454.96 C 638.87 453.97, 641.14 453.57, 644.48 453.57 C 647.81 453.57, 649.15 454.72, 651.35 454.96 C 653.56 455.19, 654.02 454.93, 655.51 454.73 C 657.00 454.52, 657.65 454.88, 658.81 453.95 C 659.97 453.01, 661.25 451.69, 661.33 450.05" style="stroke: black; fill: black;"/><path d="M 705.02,458.33 C 703.51 458.20, 702.84 458.43, 701.24 459.64 C 699.64 460.85, 698.64 461.68, 697.02 464.38 C 695.39 467.08, 694.84 469.47, 693.10 473.15 C 691.35 476.83, 690.28 479.05, 688.28 482.78 C 686.28 486.51, 685.06 488.47, 683.09 491.79 C 681.13 495.11, 679.65 496.62, 678.46 499.38 C 677.26 502.13, 677.19 503.58, 677.13 505.55 C 677.07 507.53, 677.64 508.23, 678.15 509.25 C 678.66 510.27, 679.05 510.34, 679.68 510.63 C 680.30 510.91, 680.64 510.75, 681.28 510.68 C 681.91 510.60, 682.02 510.73, 682.85 510.25 C 683.68 509.77, 684.39 509.61, 685.42 508.28 C 686.45 506.94, 686.89 506.04, 687.99 503.58 C 689.09 501.12, 689.35 499.28, 690.93 495.99 C 692.51 492.70, 693.75 490.70, 695.91 487.13 C 698.07 483.57, 699.41 481.47, 701.72 478.16 C 704.04 474.85, 705.89 473.32, 707.49 470.58 C 709.08 467.83, 709.45 466.50, 709.70 464.43 C 709.95 462.37, 709.70 461.49, 708.76 460.26 C 707.82 459.04, 706.52 458.45, 705.02 458.33" style="stroke: black; fill: black;"/><path d="M 731.56,408.27 C 733.36 407.96, 734.60 407.38, 734.40 407.53 C 734.19 407.69, 732.31 408.23, 730.53 409.04 C 728.75 409.84, 726.37 411.22, 725.50 411.56 C 724.63 411.90, 724.75 411.95, 726.19 410.74 C 727.63 409.52, 731.50 407.00, 732.70 405.47 C 733.89 403.95, 733.43 403.11, 732.14 403.12 C 730.86 403.13, 728.23 404.50, 726.27 405.53 C 724.31 406.55, 722.53 407.52, 722.35 408.22 C 722.18 408.93, 723.56 409.06, 725.40 409.07 C 727.24 409.08, 729.76 408.58, 731.56 408.27" style="stroke: black; fill: black;"/><path d="M 752.68,459.04 C 751.03 459.11, 750.07 459.64, 748.49 461.33 C 746.91 463.02, 746.43 464.41, 744.78 467.47 C 743.12 470.52, 742.28 472.83, 740.21 476.61 C 738.15 480.38, 736.87 482.63, 734.46 486.33 C 732.06 490.03, 730.55 492.01, 728.20 495.11 C 725.85 498.21, 723.79 499.29, 722.70 501.82 C 721.61 504.35, 721.87 505.97, 722.75 507.75 C 723.63 509.53, 725.02 510.56, 727.10 510.72 C 729.17 510.88, 730.84 510.66, 733.11 508.54 C 735.38 506.42, 735.66 503.85, 738.44 500.11 C 741.22 496.36, 742.99 493.92, 747.01 489.82 C 751.03 485.72, 753.64 483.38, 758.53 479.60 C 763.42 475.81, 766.31 473.85, 771.45 470.90 C 776.58 467.95, 779.48 466.62, 784.19 464.84 C 788.90 463.05, 791.42 462.46, 794.98 461.98 C 798.53 461.50, 799.98 462.07, 801.97 462.45 C 803.96 462.83, 804.31 462.81, 804.91 463.87 C 805.51 464.94, 805.16 465.51, 804.98 467.76 C 804.80 470.01, 804.86 471.70, 804.01 475.12 C 803.16 478.54, 802.33 480.90, 800.74 484.85 C 799.16 488.80, 797.98 491.09, 796.10 494.89 C 794.21 498.69, 792.72 500.59, 791.30 503.85 C 789.88 507.11, 789.27 508.73, 789.01 511.18 C 788.74 513.63, 789.15 514.91, 789.98 516.08 C 790.81 517.25, 791.85 517.47, 793.16 517.03 C 794.47 516.59, 795.23 515.77, 796.53 513.88 C 797.82 511.98, 798.23 510.64, 799.63 507.55 C 801.03 504.46, 801.77 502.32, 803.54 498.44 C 805.31 494.55, 806.62 492.30, 808.48 488.13 C 810.34 483.96, 811.58 481.70, 812.84 477.58 C 814.09 473.46, 815.07 471.23, 814.76 467.53 C 814.44 463.83, 813.46 461.75, 811.25 459.09 C 809.05 456.43, 807.24 455.03, 803.73 454.23 C 800.21 453.44, 798.04 454.09, 793.68 455.10 C 789.32 456.11, 786.92 457.10, 781.92 459.30 C 776.91 461.50, 774.01 462.95, 768.65 466.09 C 763.29 469.24, 760.33 471.25, 755.11 475.03 C 749.90 478.81, 747.20 481.16, 742.57 484.98 C 737.95 488.80, 735.64 490.92, 731.98 494.12 C 728.33 497.31, 726.03 498.40, 724.29 500.94 C 722.54 503.49, 722.76 505.11, 723.25 506.84 C 723.73 508.57, 725.06 509.48, 726.71 509.60 C 728.37 509.71, 729.78 509.36, 731.52 507.43 C 733.26 505.50, 733.46 503.28, 735.42 499.96 C 737.38 496.65, 738.82 494.57, 741.32 490.85 C 743.81 487.14, 745.35 484.99, 747.88 481.39 C 750.42 477.79, 752.10 475.91, 754.01 472.83 C 755.92 469.75, 756.89 468.37, 757.43 465.99 C 757.97 463.61, 757.66 462.33, 756.71 460.94 C 755.76 459.55, 754.32 458.96, 752.68 459.04" style="stroke: black; fill: black;"/><path d="M 1022.11,397.59 C 1020.61 397.90, 1019.83 398.28, 1018.64 400.23 C 1017.45 402.18, 1017.33 403.63, 1016.15 407.35 C 1014.97 411.06, 1014.56 413.72, 1012.75 418.80 C 1010.93 423.88, 1009.66 426.91, 1007.08 432.75 C 1004.49 438.59, 1002.85 441.86, 999.84 447.98 C 996.83 454.10, 995.09 457.37, 992.01 463.35 C 988.93 469.33, 987.31 472.40, 984.44 477.89 C 981.58 483.39, 980.17 486.14, 977.69 490.82 C 975.21 495.49, 974.06 497.71, 972.04 501.28 C 970.01 504.84, 968.67 506.19, 967.56 508.65 C 966.44 511.10, 966.50 512.05, 966.44 513.56 C 966.39 515.08, 966.90 515.54, 967.27 516.23 C 967.64 516.92, 967.95 516.74, 968.31 517.02 C 968.67 517.30, 968.61 517.49, 969.07 517.63 C 969.54 517.78, 969.84 518.01, 970.64 517.75 C 971.44 517.49, 972.04 517.43, 973.07 516.35 C 974.11 515.28, 974.74 514.78, 975.82 512.37 C 976.90 509.96, 977.04 508.09, 978.46 504.28 C 979.88 500.48, 980.80 498.16, 982.92 493.35 C 985.04 488.54, 986.36 485.77, 989.06 480.22 C 991.76 474.67, 993.35 471.60, 996.42 465.62 C 999.49 459.63, 1001.23 456.37, 1004.40 450.30 C 1007.57 444.22, 1009.28 440.97, 1012.26 435.24 C 1015.24 429.51, 1016.78 426.55, 1019.31 421.65 C 1021.83 416.75, 1023.20 414.41, 1024.89 410.73 C 1026.57 407.05, 1027.48 405.66, 1027.73 403.25 C 1027.99 400.83, 1027.28 399.78, 1026.16 398.65 C 1025.04 397.52, 1023.62 397.27, 1022.11 397.59" style="stroke: black; fill: black;"/><path d="M 963.79,393.30 C 964.62 394.48, 965.15 395.16, 967.30 395.36 C 969.45 395.56, 970.66 395.07, 974.54 394.28 C 978.41 393.49, 980.98 392.49, 986.68 391.43 C 992.38 390.37, 995.98 389.87, 1003.05 388.97 C 1010.12 388.07, 1014.30 387.59, 1022.05 386.93 C 1029.80 386.26, 1034.02 385.94, 1041.78 385.64 C 1049.55 385.34, 1053.67 385.27, 1060.89 385.43 C 1068.11 385.59, 1072.03 385.81, 1077.89 386.44 C 1083.76 387.07, 1086.37 387.94, 1090.22 388.57 C 1094.08 389.20, 1095.12 389.48, 1097.18 389.59 C 1099.24 389.69, 1099.68 389.65, 1100.54 389.10 C 1101.40 388.56, 1101.84 387.93, 1101.48 386.87 C 1101.11 385.81, 1100.76 384.79, 1098.70 383.81 C 1096.64 382.83, 1095.26 382.49, 1091.17 381.98 C 1087.08 381.47, 1084.31 381.45, 1078.26 381.24 C 1072.21 381.03, 1068.26 380.89, 1060.94 380.91 C 1053.61 380.93, 1049.46 381.03, 1041.62 381.32 C 1033.77 381.61, 1029.53 381.90, 1021.71 382.38 C 1013.90 382.86, 1009.71 383.26, 1002.55 383.72 C 995.38 384.19, 991.77 384.44, 985.91 384.71 C 980.05 384.98, 977.26 384.75, 973.24 385.07 C 969.23 385.40, 967.86 385.44, 965.83 386.32 C 963.81 387.19, 963.54 388.04, 963.13 389.43 C 962.72 390.83, 962.95 392.11, 963.79 393.30" style="stroke: black; fill: black;"/><path d="M 1118.24,465.85 C 1117.66 463.99, 1116.26 462.31, 1113.50 461.18 C 1110.74 460.05, 1108.52 459.88, 1104.44 460.20 C 1100.36 460.52, 1097.75 461.15, 1093.10 462.77 C 1088.45 464.39, 1086.02 465.69, 1081.19 468.29 C 1076.35 470.89, 1073.73 472.54, 1068.92 475.75 C 1064.12 478.96, 1061.44 480.87, 1057.18 484.35 C 1052.92 487.82, 1050.84 489.70, 1047.64 493.11 C 1044.43 496.52, 1042.65 498.02, 1041.15 501.39 C 1039.65 504.75, 1039.46 506.84, 1040.14 509.94 C 1040.81 513.04, 1042.00 514.89, 1044.53 516.90 C 1047.06 518.90, 1049.11 519.77, 1052.80 519.97 C 1056.49 520.17, 1058.67 519.26, 1062.97 517.90 C 1067.28 516.55, 1069.63 515.48, 1074.33 513.20 C 1079.02 510.92, 1081.61 509.49, 1086.45 506.49 C 1091.29 503.49, 1093.89 501.68, 1098.52 498.20 C 1103.14 494.73, 1105.52 492.67, 1109.58 489.10 C 1113.64 485.54, 1115.66 483.56, 1118.83 480.37 C 1121.99 477.19, 1124.20 475.93, 1125.41 473.17 C 1126.61 470.41, 1126.12 468.29, 1124.84 466.57 C 1123.55 464.86, 1121.41 463.90, 1118.98 464.59 C 1116.56 465.27, 1115.05 466.91, 1112.73 470.00 C 1110.41 473.10, 1109.47 475.76, 1107.39 480.05 C 1105.31 484.34, 1104.17 487.08, 1102.32 491.44 C 1100.47 495.80, 1099.43 497.95, 1098.15 501.86 C 1096.86 505.78, 1095.94 507.63, 1095.91 511.01 C 1095.89 514.39, 1096.56 516.04, 1098.02 518.78 C 1099.48 521.51, 1100.64 522.94, 1103.23 524.68 C 1105.81 526.42, 1107.98 527.20, 1110.94 527.48 C 1113.90 527.77, 1115.81 527.27, 1118.03 526.11 C 1120.24 524.95, 1121.48 523.48, 1122.02 521.68 C 1122.56 519.88, 1121.95 518.42, 1120.74 517.11 C 1119.52 515.81, 1117.83 515.53, 1115.93 515.16 C 1114.03 514.79, 1112.96 515.08, 1111.23 515.26 C 1109.51 515.43, 1108.49 516.07, 1107.31 516.04 C 1106.14 516.00, 1105.74 516.02, 1105.35 515.08 C 1104.96 514.14, 1105.19 513.49, 1105.35 511.32 C 1105.50 509.15, 1105.26 507.55, 1106.13 504.24 C 1107.00 500.92, 1107.81 498.68, 1109.69 494.75 C 1111.56 490.81, 1113.10 488.30, 1115.49 484.57 C 1117.89 480.84, 1119.85 479.04, 1121.65 476.09 C 1123.45 473.14, 1124.42 471.77, 1124.50 469.83 C 1124.57 467.89, 1123.42 466.72, 1122.05 466.39 C 1120.67 466.06, 1119.36 466.34, 1117.62 468.17 C 1115.87 470.01, 1115.77 472.30, 1113.31 475.56 C 1110.85 478.82, 1109.00 480.91, 1105.32 484.47 C 1101.63 488.02, 1099.30 490.05, 1094.88 493.36 C 1090.46 496.66, 1087.89 498.37, 1083.20 501.00 C 1078.51 503.64, 1075.91 504.86, 1071.45 506.54 C 1066.98 508.21, 1064.57 508.79, 1060.88 509.39 C 1057.20 510.00, 1055.45 509.51, 1053.04 509.57 C 1050.63 509.63, 1049.94 509.87, 1048.82 509.70 C 1047.70 509.52, 1047.44 509.65, 1047.43 508.70 C 1047.42 507.76, 1047.67 507.16, 1048.78 504.97 C 1049.89 502.78, 1050.48 500.90, 1052.98 497.75 C 1055.48 494.60, 1057.40 492.58, 1061.28 489.23 C 1065.16 485.88, 1067.79 483.96, 1072.38 480.98 C 1076.96 478.00, 1079.63 476.45, 1084.21 474.34 C 1088.80 472.22, 1091.22 471.31, 1095.31 470.40 C 1099.40 469.48, 1101.52 469.61, 1104.67 469.76 C 1107.81 469.91, 1108.67 470.99, 1111.02 471.13 C 1113.37 471.28, 1114.96 471.53, 1116.41 470.47 C 1117.85 469.42, 1118.82 467.71, 1118.24 465.85" style="stroke: black; fill: black;"/><path d="M 1167.97,477.16 C 1166.37 477.23, 1165.64 477.77, 1164.10 479.18 C 1162.57 480.60, 1161.67 481.58, 1160.30 484.24 C 1158.92 486.89, 1158.61 489.16, 1157.23 492.44 C 1155.86 495.72, 1154.98 497.69, 1153.44 500.63 C 1151.90 503.58, 1150.43 504.88, 1149.54 507.18 C 1148.65 509.49, 1148.55 510.66, 1148.97 512.16 C 1149.40 513.66, 1150.25 514.38, 1151.66 514.68 C 1153.08 514.98, 1154.58 514.91, 1156.05 513.66 C 1157.51 512.42, 1158.03 511.17, 1158.98 508.47 C 1159.94 505.77, 1159.59 503.57, 1160.81 500.16 C 1162.03 496.74, 1162.97 494.78, 1165.09 491.40 C 1167.22 488.01, 1168.64 486.23, 1171.44 483.23 C 1174.23 480.23, 1175.93 478.74, 1179.06 476.41 C 1182.19 474.08, 1183.98 473.08, 1187.10 471.59 C 1190.21 470.10, 1191.81 469.53, 1194.65 468.95 C 1197.48 468.36, 1198.76 468.57, 1201.25 468.67 C 1203.75 468.77, 1205.09 469.37, 1207.12 469.46 C 1209.15 469.56, 1209.90 469.42, 1211.42 469.16 C 1212.94 468.90, 1213.79 469.01, 1214.71 468.16 C 1215.63 467.32, 1216.21 466.23, 1216.02 464.93 C 1215.82 463.64, 1215.18 462.87, 1213.75 461.69 C 1212.33 460.52, 1211.44 459.72, 1208.89 459.04 C 1206.33 458.36, 1204.31 458.04, 1200.98 458.30 C 1197.65 458.56, 1195.76 459.13, 1192.23 460.33 C 1188.70 461.53, 1186.90 462.32, 1183.32 464.30 C 1179.74 466.27, 1177.84 467.49, 1174.34 470.20 C 1170.84 472.91, 1169.04 474.58, 1165.82 477.85 C 1162.61 481.12, 1161.06 483.02, 1158.28 486.56 C 1155.49 490.10, 1154.21 492.10, 1151.89 495.56 C 1149.57 499.01, 1147.91 500.75, 1146.68 503.84 C 1145.45 506.93, 1145.21 508.65, 1145.75 511.02 C 1146.29 513.40, 1147.61 514.63, 1149.37 515.70 C 1151.12 516.77, 1152.55 516.95, 1154.54 516.37 C 1156.53 515.80, 1157.66 514.99, 1159.34 512.83 C 1161.02 510.67, 1161.36 508.65, 1162.95 505.55 C 1164.54 502.46, 1165.50 500.52, 1167.28 497.34 C 1169.06 494.17, 1170.62 492.49, 1171.83 489.68 C 1173.04 486.87, 1173.26 485.44, 1173.32 483.28 C 1173.37 481.12, 1173.17 480.10, 1172.10 478.87 C 1171.03 477.65, 1169.57 477.10, 1167.97 477.16" style="stroke: black; fill: black;"/><path d="M 1253.44,467.77 C 1251.84 467.71, 1250.84 467.98, 1249.19 469.53 C 1247.55 471.08, 1246.86 472.47, 1245.22 475.50 C 1243.59 478.53, 1242.86 480.87, 1241.02 484.68 C 1239.18 488.48, 1238.04 490.79, 1236.03 494.53 C 1234.02 498.27, 1232.68 500.16, 1230.99 503.38 C 1229.30 506.61, 1228.19 508.17, 1227.57 510.66 C 1226.95 513.14, 1227.54 514.28, 1227.89 515.79 C 1228.25 517.31, 1228.62 517.68, 1229.35 518.23 C 1230.08 518.79, 1230.72 518.73, 1231.56 518.56 C 1232.41 518.40, 1232.53 518.26, 1233.56 517.40 C 1234.59 516.54, 1235.56 516.26, 1236.71 514.26 C 1237.86 512.27, 1237.92 510.54, 1239.30 507.42 C 1240.69 504.30, 1241.64 502.30, 1243.65 498.68 C 1245.65 495.06, 1247.05 492.87, 1249.33 489.33 C 1251.60 485.79, 1253.29 483.98, 1255.03 480.98 C 1256.76 477.99, 1257.56 476.60, 1257.99 474.36 C 1258.42 472.12, 1258.10 471.13, 1257.19 469.81 C 1256.28 468.49, 1255.04 467.82, 1253.44 467.77" style="stroke: black; fill: black;"/><path d="M 1278.71,425.62 C 1280.06 425.71, 1280.07 425.70, 1279.74 426.78 C 1279.40 427.85, 1277.71 430.50, 1277.05 431.00 C 1276.39 431.51, 1276.29 431.28, 1276.43 429.32 C 1276.57 427.35, 1277.97 423.19, 1277.73 421.17 C 1277.49 419.14, 1276.41 418.59, 1275.23 419.18 C 1274.05 419.76, 1272.28 422.68, 1271.83 424.11 C 1271.38 425.53, 1271.61 426.00, 1272.98 426.30 C 1274.36 426.60, 1277.36 425.52, 1278.71 425.62" style="stroke: black; fill: black;"/><path d="M 1351.46,474.03 C 1351.33 472.29, 1350.53 471.07, 1348.58 469.61 C 1346.63 468.15, 1345.04 467.06, 1341.71 466.74 C 1338.38 466.42, 1336.01 466.96, 1331.95 468.01 C 1327.90 469.07, 1325.78 470.01, 1321.43 472.01 C 1317.08 474.01, 1314.66 475.26, 1310.19 477.99 C 1305.73 480.73, 1303.16 482.41, 1299.11 485.66 C 1295.05 488.91, 1292.99 490.79, 1289.90 494.24 C 1286.82 497.68, 1285.09 499.36, 1283.67 502.89 C 1282.26 506.43, 1282.05 508.63, 1282.84 511.92 C 1283.63 515.21, 1284.85 517.29, 1287.62 519.36 C 1290.39 521.43, 1292.64 522.00, 1296.69 522.28 C 1300.74 522.56, 1303.10 521.85, 1307.86 520.73 C 1312.61 519.62, 1315.32 518.67, 1320.46 516.69 C 1325.60 514.71, 1328.44 513.38, 1333.56 510.84 C 1338.67 508.30, 1341.37 506.74, 1346.04 503.99 C 1350.70 501.24, 1353.09 499.65, 1356.87 497.11 C 1360.65 494.56, 1363.12 493.75, 1364.95 491.28 C 1366.78 488.82, 1366.72 486.77, 1366.02 484.78 C 1365.31 482.78, 1363.72 481.41, 1361.44 481.30 C 1359.16 481.19, 1357.16 481.71, 1354.64 484.22 C 1352.11 486.72, 1351.41 489.36, 1348.82 493.83 C 1346.23 498.30, 1344.80 501.09, 1341.69 506.57 C 1338.57 512.05, 1336.72 515.14, 1333.23 521.23 C 1329.74 527.32, 1327.82 530.66, 1324.22 537.00 C 1320.63 543.35, 1318.70 546.70, 1315.24 552.96 C 1311.77 559.22, 1309.99 562.47, 1306.91 568.31 C 1303.82 574.15, 1302.33 577.05, 1299.80 582.16 C 1297.27 587.27, 1296.12 589.70, 1294.25 593.85 C 1292.37 598.00, 1291.25 599.74, 1290.41 602.90 C 1289.58 606.07, 1289.78 607.57, 1290.09 609.67 C 1290.40 611.78, 1290.98 612.67, 1291.96 613.42 C 1292.95 614.17, 1294.02 614.03, 1295.01 613.43 C 1296.00 612.83, 1296.19 612.10, 1296.91 610.41 C 1297.63 608.72, 1297.92 607.82, 1298.61 604.97 C 1299.29 602.12, 1299.12 600.25, 1300.34 596.14 C 1301.57 592.03, 1302.56 589.55, 1304.74 584.43 C 1306.91 579.31, 1308.32 576.38, 1311.23 570.53 C 1314.14 564.68, 1315.88 561.42, 1319.29 555.19 C 1322.70 548.95, 1324.62 545.61, 1328.28 539.34 C 1331.94 533.07, 1333.89 529.75, 1337.59 523.85 C 1341.29 517.94, 1343.21 514.87, 1346.78 509.80 C 1350.35 504.74, 1352.26 502.21, 1355.45 498.52 C 1358.63 494.83, 1360.86 493.81, 1362.72 491.35 C 1364.57 488.90, 1364.78 487.85, 1364.72 486.27 C 1364.67 484.69, 1363.79 483.75, 1362.45 483.44 C 1361.12 483.13, 1360.06 483.14, 1358.05 484.72 C 1356.04 486.29, 1355.46 488.55, 1352.39 491.32 C 1349.32 494.08, 1347.01 495.77, 1342.69 498.54 C 1338.37 501.31, 1335.70 502.84, 1330.80 505.17 C 1325.90 507.50, 1323.07 508.68, 1318.19 510.21 C 1313.31 511.75, 1310.57 512.32, 1306.40 512.85 C 1302.23 513.39, 1300.15 513.09, 1297.34 512.89 C 1294.53 512.69, 1293.71 512.36, 1292.34 511.84 C 1290.98 511.32, 1290.69 511.40, 1290.53 510.27 C 1290.38 509.15, 1290.55 508.46, 1291.57 506.22 C 1292.59 503.98, 1293.24 502.11, 1295.63 499.09 C 1298.02 496.07, 1299.89 494.10, 1303.53 491.12 C 1307.16 488.14, 1309.65 486.51, 1313.82 484.18 C 1317.99 481.84, 1320.45 480.75, 1324.39 479.45 C 1328.32 478.16, 1330.30 477.78, 1333.49 477.68 C 1336.69 477.58, 1338.05 478.64, 1340.38 478.94 C 1342.72 479.23, 1343.38 479.28, 1345.16 479.16 C 1346.94 479.04, 1348.00 479.35, 1349.26 478.32 C 1350.53 477.30, 1351.60 475.77, 1351.46 474.03" style="stroke: black; fill: black;"/></svg>